<svg width="32" height="26" viewBox="0 0 32 26" fill="none" xmlns="http://www.w3.org/2000/svg">
<path d="M29.5 22L19 4C19 3.20435 18.6839 2.44129 18.1213 1.87868C17.5587 1.31607 16.7956 1 16 1H4C3.20435 1 2.44129 1.31607 1.87868 1.87868C1.31607 2.44129 1 3.20435 1 4V20.5C1 20.8978 1.15804 21.2794 1.43934 21.5607C1.72064 21.842 2.10218 22 2.5 22H5.5" fill="white"/>
<path d="M20.5 22H11.5H20.5Z" fill="white"/>
<path d="M26.5 22H29.5C29.8978 22 30.2794 21.842 30.5607 21.5607C30.842 21.2794 31 20.8978 31 20.5V15.025C30.9994 14.6846 30.883 14.3545 30.67 14.089L25.45 7.564C25.3097 7.38832 25.1317 7.24642 24.9292 7.1488C24.7267 7.05117 24.5048 7.00032 24.28 7H18" fill="white"/>
<path d="M23.5 25C25.1569 25 26.5 23.6569 26.5 22C26.5 20.3431 25.1569 19 23.5 19C21.8431 19 20.5 20.3431 20.5 22C20.5 23.6569 21.8431 25 23.5 25Z" fill="white"/>
<path d="M8.5 25C10.1569 25 11.5 23.6569 11.5 22C11.5 20.3431 10.1569 19 8.5 19C6.84315 19 5.5 20.3431 5.5 22C5.5 23.6569 6.84315 25 8.5 25Z" fill="white"/>
<path d="M29.5 22L19 4C19 3.20435 18.6839 2.44129 18.1213 1.87868C17.5587 1.31607 16.7956 1 16 1H4C3.20435 1 2.44129 1.31607 1.87868 1.87868C1.31607 2.44129 1 3.20435 1 4V20.5C1 20.8978 1.15804 21.2794 1.43934 21.5607C1.72064 21.842 2.10218 22 2.5 22H5.5M29.5 22H26.5M29.5 22C29.8978 22 30.2794 21.842 30.5607 21.5607C30.842 21.2794 31 20.8978 31 20.5V15.025C30.9994 14.6846 30.883 14.3545 30.67 14.089L25.45 7.564C25.3097 7.38832 25.1317 7.24642 24.9292 7.1488C24.7267 7.05117 24.5048 7.00032 24.28 7H18M5.5 22C5.5 23.6569 6.84315 25 8.5 25C10.1569 25 11.5 23.6569 11.5 22M5.5 22C5.5 20.3431 6.84315 19 8.5 19C10.1569 19 11.5 20.3431 11.5 22M20.5 22H11.5M20.5 22C20.5 23.6569 21.8431 25 23.5 25C25.1569 25 26.5 23.6569 26.5 22M20.5 22C20.5 20.3431 21.8431 19 23.5 19C25.1569 19 26.5 20.3431 26.5 22" stroke="white" stroke-width="2" stroke-linecap="round" stroke-linejoin="round"/>
</svg>
